<?xml version="1.0" encoding="UTF-8"?>
<svg id="Capa_1" xmlns="http://www.w3.org/2000/svg" version="1.1" viewBox="0 0 698.91 329.79">
  <!-- Generator: Adobe Illustrator 30.0.0, SVG Export Plug-In . SVG Version: 2.1.1 Build 123)  -->
  <defs>
    <style>
      .st0 {
        fill: #0064ff;
      }
    </style>
  </defs>
  <rect class="st0" x="328.31" y="148.48" width="33.58" height="82.76"/>
  <rect class="st0" x="328.31" y="107.81" width="33.58" height="24.88"/>
  <path class="st0" d="M44.68,9.44l-.18,76.77c0,17.43,12.71,29.59,30.87,29.59,29.05,0,42.66-24.69,42.66-34.5l.18-71.87h33.41v121.98h-33.41v-21.97c-7.62,11.44-24.87,23.24-50.1,23.24s-56.28-14.16-56.28-46.48V9.43h32.86-.01Z"/>
  <path class="st0" d="M166.71,8.01h33.41v21.6c10.53-11.98,32.49-23.06,55.37-23.06,35.4,0,63.54,23.42,63.54,50.83,0,31.23-28.14,49.56-63.54,49.56-20.15,0-44.84-11.44-55.37-23.42v48.01h-33.41V8h0ZM245.87,88.62c24.51,0,39.58-12.53,39.58-30.86,0-20.88-17.43-33.22-40.12-33.22-26.51,0-45.2,18.34-45.2,31.59s17.97,32.5,45.75,32.5h0Z"/>
  <path class="st0" d="M167.07,147.83h33.41v21.6c10.53-11.98,32.49-23.06,55.37-23.06,35.4,0,63.54,23.42,63.54,50.83,0,31.23-28.14,49.56-63.54,49.56-20.15,0-44.84-11.44-55.37-23.42v48.01h-33.41v-123.53h0ZM246.22,228.44c24.51,0,39.58-12.53,39.58-30.86,0-20.88-17.43-33.22-40.12-33.22-26.51,0-45.2,18.34-45.2,31.59s17.97,32.5,45.75,32.5h-.01Z"/>
  <path class="st0" d="M376.29,147.83h33.4v21.6c10.53-11.98,32.5-23.06,55.38-23.06,35.4,0,63.54,23.42,63.54,50.83,0,31.23-28.14,49.56-63.54,49.56-20.16,0-44.85-11.44-55.38-23.42v48.01h-33.4v-123.53h0ZM455.44,228.44c24.51,0,39.58-12.53,39.58-30.86,0-20.88-17.43-33.22-40.12-33.22-26.51,0-45.21,18.34-45.21,31.59s17.97,32.5,45.75,32.5h0Z"/>
  <path class="st0" d="M536.6,201.39c0-31.95,32.13-52.47,69.72-52.47,34.49,0,66.63,16.89,66.81,52.83,0,2.9-.36,5.99-1.09,8.71-10.17,0-87.87.36-99.49.36.55,13.98,13.61,25.6,32.49,25.6,13.07,0,25.78-4.72,34.13-13.8l26.15,4.36c-9.08,16.16-32.32,26.5-59.91,26.5-37.58,0-68.81-20.33-68.81-52.1h0ZM572,197.76l65.72-.18c0-17.97-13.43-30.5-32.68-30.5-21.24,0-33.22,15.61-33.04,30.68Z"/>
  <path class="st0" d="M460.19,303.71c-.23,1.99-.93,3.68-2.1,5.08s-2.76,2.47-4.77,3.21c-2.01.74-4.41,1.11-7.18,1.11-2.32,0-4.44-.27-6.36-.8-1.92-.53-3.58-1.34-4.96-2.41s-2.46-2.4-3.23-3.99-1.15-3.46-1.15-5.59.38-4.01,1.15-5.61,1.84-2.95,3.23-4.03c1.39-1.08,3.04-1.9,4.96-2.44,1.92-.55,4.04-.82,6.36-.82,2.78,0,5.17.38,7.2,1.15s3.62,1.85,4.79,3.26c1.17,1.41,1.86,3.13,2.06,5.14h-5.04c-.33-1.07-.89-1.99-1.66-2.77-.78-.78-1.78-1.37-3-1.78-1.22-.41-2.67-.61-4.35-.61-2.09,0-3.92.32-5.5.97-1.58.65-2.8,1.6-3.67,2.86s-1.3,2.82-1.3,4.68.43,3.37,1.3,4.62,2.09,2.2,3.67,2.84c1.58.65,3.41.97,5.5.97,1.68,0,3.13-.2,4.33-.61s2.2-.99,2.98-1.76c.78-.76,1.34-1.66,1.7-2.67h5.04,0Z"/>
  <path class="st0" d="M464.5,293.63h4.96v18.98h-4.96v-18.98ZM476.76,297.71c-1.43,0-2.66.27-3.71.82-1.04.55-1.88,1.22-2.52,2-.64.79-1.08,1.55-1.34,2.29l-.04-2.1c.03-.31.13-.76.31-1.36s.45-1.25.8-1.95c.36-.7.83-1.38,1.41-2.02.59-.65,1.3-1.18,2.14-1.58.84-.41,1.82-.61,2.94-.61v4.51h.01Z"/>
  <path class="st0" d="M497.12,306.31h4.81c-.2,1.3-.74,2.46-1.62,3.48-.88,1.02-2.07,1.82-3.57,2.41-1.5.58-3.34.88-5.5.88-2.42,0-4.56-.39-6.42-1.16-1.86-.78-3.31-1.9-4.35-3.38s-1.57-3.26-1.57-5.35.51-3.88,1.53-5.37,2.44-2.63,4.26-3.42,3.95-1.18,6.4-1.18,4.57.39,6.22,1.18c1.66.79,2.88,1.98,3.69,3.57s1.14,3.62,1.01,6.09h-18.1c.13.97.49,1.85,1.09,2.63.6.79,1.41,1.41,2.44,1.87s2.26.69,3.69.69c1.58,0,2.9-.27,3.95-.82,1.06-.55,1.74-1.25,2.04-2.12h0ZM490.85,296.99c-1.83,0-3.32.4-4.47,1.2s-1.88,1.79-2.21,2.96h12.91c-.13-1.27-.73-2.29-1.81-3.04s-2.55-1.13-4.41-1.13h-.01Z"/>
  <path class="st0" d="M514.95,313.03c-1.88,0-3.6-.41-5.14-1.24s-2.76-1.99-3.67-3.47c-.9-1.49-1.36-3.21-1.36-5.17s.46-3.76,1.38-5.23c.92-1.48,2.16-2.63,3.72-3.46,1.57-.83,3.34-1.24,5.33-1.24,2.19,0,3.95.44,5.29,1.32s2.31,2.07,2.92,3.57.92,3.18.92,5.04c0,1.12-.18,2.26-.53,3.42s-.9,2.23-1.64,3.21c-.74.98-1.71,1.77-2.9,2.37s-2.63.9-4.32.9v-.02ZM516.55,309.21c1.5,0,2.8-.25,3.9-.76,1.09-.51,1.93-1.22,2.52-2.14.58-.92.88-1.97.88-3.17,0-1.3-.3-2.4-.9-3.3-.6-.9-1.44-1.59-2.52-2.06s-2.37-.71-3.88-.71c-2.11,0-3.76.55-4.93,1.66s-1.76,2.58-1.76,4.41c0,1.22.28,2.29.84,3.19s1.34,1.61,2.35,2.12c1.01.51,2.17.76,3.5.76h0ZM523.85,293.63h4.96v18.98h-4.62c-.13-.99-.22-1.87-.27-2.63s-.08-1.51-.08-2.25v-14.09h.01Z"/>
  <path class="st0" d="M531.98,293.63h14.74v3.86h-14.74v-3.86ZM536.87,288.44h4.96v24.17h-4.96v-24.17Z"/>
  <path class="st0" d="M555.58,285.3v4.35h-5.77v-4.35h5.77ZM550.2,293.63h4.96v18.98h-4.96v-18.98Z"/>
  <path class="st0" d="M570.59,309.36h-1.79l6.95-15.73h5.42l-9.13,18.98h-4.7l-8.94-18.98h5.46l6.72,15.73h.01Z"/>
  <path class="st0" d="M600.5,306.31h4.81c-.2,1.3-.74,2.46-1.62,3.48-.88,1.02-2.07,1.82-3.57,2.41-1.5.58-3.34.88-5.5.88-2.42,0-4.56-.39-6.42-1.16-1.86-.78-3.31-1.9-4.35-3.38s-1.57-3.26-1.57-5.35.51-3.88,1.53-5.37,2.44-2.63,4.26-3.42,3.95-1.18,6.4-1.18,4.57.39,6.22,1.18c1.66.79,2.88,1.98,3.69,3.57s1.14,3.62,1.01,6.09h-18.1c.13.97.49,1.85,1.09,2.63.6.79,1.41,1.41,2.44,1.87s2.26.69,3.69.69c1.58,0,2.9-.27,3.95-.82,1.06-.55,1.74-1.25,2.04-2.12h0ZM594.23,296.99c-1.83,0-3.32.4-4.47,1.2s-1.88,1.79-2.21,2.96h12.91c-.13-1.27-.73-2.29-1.81-3.04s-2.55-1.13-4.41-1.13h-.01Z"/>
  <path class="st0" d="M624.44,313.11c-3.28,0-6.09-.52-8.42-1.55-2.33-1.03-4.11-2.5-5.35-4.41s-1.85-4.2-1.85-6.87.62-5,1.85-6.91c1.24-1.91,3.02-3.38,5.35-4.41,2.33-1.03,5.14-1.55,8.42-1.55s6.12.52,8.44,1.55c2.32,1.03,4.09,2.5,5.33,4.41,1.23,1.91,1.85,4.21,1.85,6.91s-.62,4.96-1.85,6.87c-1.24,1.91-3.01,3.38-5.33,4.41-2.32,1.03-5.13,1.55-8.44,1.55ZM624.44,308.71c2.04,0,3.83-.31,5.37-.92s2.75-1.54,3.63-2.79,1.32-2.83,1.32-4.74-.44-3.49-1.32-4.74-2.09-2.18-3.63-2.81c-1.54-.62-3.33-.94-5.37-.94s-3.81.31-5.38.94c-1.58.62-2.81,1.56-3.7,2.81s-1.34,2.83-1.34,4.74.45,3.49,1.34,4.74,2.12,2.18,3.7,2.79,3.37.92,5.38.92Z"/>
  <path class="st0" d="M644.37,293.63h4.74l.23,5.04v21.58h-4.96v-26.62h0ZM658.2,313.07c-1.68,0-3.11-.3-4.3-.9-1.18-.6-2.15-1.39-2.88-2.37-.74-.98-1.29-2.06-1.64-3.23-.36-1.17-.53-2.32-.53-3.44,0-1.4.17-2.7.52-3.9s.88-2.25,1.62-3.15,1.7-1.61,2.88-2.12,2.63-.76,4.33-.76c1.91,0,3.63.42,5.16,1.26,1.53.84,2.74,2,3.65,3.5.9,1.49,1.36,3.21,1.36,5.17s-.46,3.76-1.37,5.25c-.92,1.49-2.14,2.64-3.67,3.46-1.53.81-3.23,1.22-5.12,1.22h-.01ZM656.6,309.21c1.35,0,2.53-.25,3.53-.76s1.78-1.21,2.33-2.12c.55-.9.82-1.97.82-3.19,0-1.83-.58-3.31-1.74-4.43s-2.81-1.68-4.95-1.68c-1.35,0-2.58.24-3.69.73s-1.98,1.18-2.62,2.08-.96,2-.96,3.3c0,1.22.29,2.29.88,3.19.58.9,1.42,1.61,2.52,2.12,1.09.51,2.38.76,3.86.76h.02Z"/>
  <path class="st0" d="M671.26,306.31h4.58c.28.87.86,1.57,1.74,2.12s2.03.82,3.46.82c.97,0,1.72-.09,2.25-.27s.9-.44,1.11-.78c.2-.34.31-.73.31-1.17,0-.53-.17-.95-.5-1.24s-.84-.53-1.53-.71-1.57-.34-2.63-.5c-1.07-.18-2.1-.39-3.09-.65s-1.87-.59-2.63-1.01-1.37-.95-1.81-1.6-.67-1.44-.67-2.39.22-1.73.67-2.44,1.07-1.31,1.87-1.79,1.74-.85,2.83-1.11c1.08-.25,2.25-.38,3.5-.38,1.88,0,3.45.27,4.7.82s2.18,1.31,2.81,2.29c.62.98.94,2.11.94,3.38h-4.39c-.2-.94-.61-1.62-1.22-2.04s-1.55-.63-2.83-.63-2.19.19-2.83.57-.96.9-.96,1.57c0,.54.2.95.59,1.24s.98.53,1.76.71,1.75.37,2.92.57c.99.2,1.94.43,2.84.69.9.25,1.71.58,2.42.97s1.28.92,1.7,1.57.63,1.47.63,2.46c0,1.22-.35,2.25-1.05,3.09s-1.7,1.48-3,1.93-2.85.67-4.66.67c-1.6,0-2.99-.17-4.14-.52-1.16-.34-2.12-.79-2.88-1.34s-1.36-1.13-1.78-1.76c-.42-.62-.71-1.22-.86-1.78-.15-.56-.2-1.02-.15-1.38l-.02.02Z"/>
</svg>